# xmcd
#
# Track frame offsets:
#	150
#	12117
#	24166
#	38836
#	51252
#	61678
#	71073
#	84487
#	98748
#	111991
#	124730
#	136524
#	149256
#	160108
#	173747
#	186628
#	198805
#	208555
#	221575
#	233869
#	245516
#	259457
#	269461
#	281377
#	293302
#	307296
#
# Disc length: 4264 seconds
#
# Revision: 1
# Processed by: cddbd v1.5.2PL0 Copyright (c) Steve Scherf et al.
# Submitted via: audiograbber 1.83.01
#
DISCID=7710a61a
DTITLE=Ernest Tubb - The Texas Troubadour  Vol1
DYEAR=1900
DGENRE=Country
TTITLE0=The Wings Of A Dove
TTITLE1=I Saw The Light
TTITLE2=Seaman's Blues
TTITLE3=Just A Stone Throw Away
TTITLE4=Thats When Im Coming Home To You
TTITLE5=Whos Gonna Be Your Santa Claus This Year  
TTITLE6=Mean Mama Blues 
TTITLE7=Its Been So Long Darling
TTITLE8=Remember Im The One Who Loves You
TTITLE9=What A Friend We Have In Jesus
TTITLE10=There She Goes
TTITLE11=Blue Eyed Elaine
TTITLE12=Signed Sealed And Delivered
TTITLE13=Try Me One More Time
TTITLE14=Have You Ever Been Lonely
TTITLE15=I Loved You Once
TTITLE16=Merry Texas Christmas You All ( With Beasley Sisters )
TTITLE17=The Wild Side Of Life
TTITLE18=Hello World
TTITLE19=Thats All She Wrote
TTITLE20=Tomorrow Never Comes
TTITLE21=Hell Understand and Say Well Done
TTITLE22=The Great Speckled Bird
TTITLE23=Wabash Cannonball 
TTITLE24=Our Baby Book
TTITLE25=Till My Getup Has Gotup And Gone
EXTD=
EXTT0=
EXTT1=
EXTT2=
EXTT3=
EXTT4=
EXTT5=
EXTT6=
EXTT7=
EXTT8=
EXTT9=
EXTT10=
EXTT11=
EXTT12=
EXTT13=
EXTT14=
EXTT15=
EXTT16=
EXTT17=
EXTT18=
EXTT19=
EXTT20=
EXTT21=
EXTT22=
EXTT23=
EXTT24=
EXTT25=
PLAYORDER=
